PathFileType   4   (X/Y/Z)
DataRate	CameraRate	NumFrames	NumMarkers	Units	OrigDataRate	OrigDataStartFrame	OrigNumFrames
120.0	120.0	9	37	mm	120.0	125	142
Frame#	Time	midhip	hip_r	hip_l	knee_r	knee_l	ankle_r	ankle_l	midasis	asis_r	asis_l	psis_r	psis_l	epicondLat_r	epicondLat_l	epicondMed_r	epicondMed_l	malleolusLat_r	malleolusLat_l	malleolusMedv_r	malleolusMedv_l	neck	subclavicle_r	subclavicle_l	sternalnotch	xyphoidprocess	thighwand_r	thighwand_l	upperleg1_r	upperleg1_l	upperleg2_r	upperleg2_l	shankwand_r	shankwand_l	lowerleg1_r	lowerleg1_l	toe_r	toe_l
 	 	X1	Y1	Z1	X2	Y2	Z2	X3	Y3	Z3	X4	Y4	Z4	X5	Y5	Z5	X6	Y6	Z6	X7	Y7	Z7	X8	Y8	Z8	X9	Y9	Z9	X10	Y10	Z10	X11	Y11	Z11	X12	Y12	Z12	X13	Y13	Z13	X14	Y14	Z14	X15	Y15	Z15	X16	Y16	Z16	X17	Y17	Z17	X18	Y18	Z18	X19	Y19	Z19	X20	Y20	Z20	X21	Y21	Z21	X22	Y22	Z22	X23	Y23	Z23	X24	Y24	Z24	X25	Y25	Z25	X26	Y26	Z26	X27	Y27	Z27	X28	Y28	Z28	X29	Y29	Z29	X30	Y30	Z30	X31	Y31	Z31	X32	Y32	Z32	X33	Y33	Z33	X34	Y34	Z34	X35	Y35	Z35	X36	Y36	Z36	X37	Y37	Z37

	125	1.21667	1410.164	887.000	-236.360	1403.678	862.965	-165.085	1407.308	866.951	-315.417	1587.886	485.257	-139.949	1358.187	458.414	-279.433	1636.076	85.479	-142.100	1281.736	69.494	-235.173	1490.244	953.356	-235.861	1487.394	950.226	-117.813	1493.094	956.486	-353.909	1302.057	987.403	-200.287	1307.559	991.415	-285.083	1589.602	489.973	-81.665	1366.683	452.367	-336.487	1578.755	467.045	-188.816	1336.651	451.623	-229.978	1618.417	83.157	-106.284	1265.611	68.624	-270.673	1646.174	100.988	-169.131	1288.883	84.990	-210.551	1335.617	1423.283	-226.768	1453.392	1334.318	-172.771	1463.849	1339.220	-276.525	1442.203	1346.254	-222.943	1508.963	1175.959	-236.056	1584.659	591.762	-5.481	1516.332	519.281	-276.987	1573.792	657.232	-72.278	1458.876	582.867	-325.609	1608.810	577.223	-92.102	1424.492	502.997	-320.207	1608.638	218.475	-17.536	1318.327	188.048	-369.403	1610.577	183.870	-91.252	1292.268	162.957	-296.418	1752.905	66.259	-118.096	1399.300	39.054	-262.010
	126	1.22500	1416.125	886.094	-236.503	1410.040	862.229	-165.053	1413.049	866.058	-315.403	1593.073	483.799	-140.014	1361.639	458.058	-279.164	1654.107	85.652	-143.343	1281.861	69.606	-235.148	1496.278	952.578	-236.280	1493.916	949.573	-118.238	1498.640	955.584	-354.322	1308.224	986.529	-200.091	1313.410	990.576	-284.838	1594.757	488.470	-81.725	1370.031	451.933	-336.226	1583.542	464.604	-188.138	1340.250	453.017	-229.164	1636.975	82.724	-107.316	1265.659	68.915	-270.617	1664.454	101.533	-170.488	1289.024	85.098	-210.294	1342.726	1422.445	-226.713	1460.356	1333.682	-173.226	1470.445	1338.499	-276.946	1448.886	1345.416	-223.177	1515.622	1175.247	-236.551	1589.911	590.425	-5.697	1520.379	518.208	-276.948	1578.610	655.494	-72.847	1464.595	583.069	-325.367	1613.704	575.542	-92.268	1428.330	502.044	-319.582	1623.923	217.662	-18.273	1319.197	187.869	-369.346	1626.824	183.106	-92.344	1293.283	162.856	-296.439	1772.185	68.739	-120.658	1399.385	39.057	-261.974
	127	1.23333	1422.319	885.250	-236.683	1416.514	861.471	-164.971	1418.881	865.141	-315.337	1598.166	482.359	-140.086	1365.170	457.696	-278.869	1671.356	86.104	-144.498	1282.030	69.765	-235.114	1502.393	951.797	-236.661	1500.535	948.915	-118.613	1504.251	954.678	-354.708	1314.497	985.594	-199.816	1319.336	989.702	-284.573	1599.804	486.971	-81.791	1373.441	451.498	-335.940	1585.559	462.736	-188.421	1343.698	453.210	-228.899	1654.713	82.627	-108.291	1265.718	69.266	-270.535	1681.747	102.670	-171.415	1289.213	85.325	-210.136	1349.652	1421.592	-226.258	1467.019	1332.810	-173.543	1476.985	1337.919	-277.142	1455.637	1344.565	-223.378	1522.092	1174.519	-237.339	1595.096	588.999	-5.937	1524.459	517.121	-276.926	1584.200	653.991	-73.351	1469.130	582.449	-325.116	1618.149	573.236	-93.031	1431.998	501.416	-319.371	1638.487	217.117	-19.001	1319.999	187.753	-369.283	1642.688	182.988	-93.317	1294.714	162.923	-296.086	1790.527	71.397	-123.305	1399.467	39.063	-261.959
	128	1.24167	1428.193	883.950	-236.988	1423.092	860.679	-164.839	1424.808	864.193	-315.218	1603.216	480.979	-140.173	1368.774	457.317	-278.550	1687.774	86.770	-145.550	1282.227	69.962	-235.062	1508.594	950.993	-236.993	1507.246	948.234	-118.916	1509.942	953.752	-355.071	1320.881	984.605	-199.457	1325.331	988.788	-284.275	1604.782	485.509	-81.869	1376.895	451.054	-335.636	1586.508	461.100	-188.625	1347.774	451.503	-230.238	1671.549	82.794	-109.205	1265.776	69.668	-270.422	1697.645	104.063	-172.116	1289.772	85.634	-210.028	1356.339	1420.787	-226.146	1473.706	1331.505	-173.658	1483.461	1337.175	-277.233	1462.457	1343.706	-223.540	1528.446	1173.501	-238.439	1600.221	587.488	-6.202	1528.588	516.014	-276.952	1589.488	652.471	-73.687	1472.938	581.299	-325.014	1621.992	571.099	-93.750	1436.540	501.125	-320.027	1652.219	216.785	-19.704	1320.745	187.713	-369.215	1657.492	183.137	-94.362	1295.727	163.251	-295.681	1807.824	74.206	-126.012	1399.546	39.074	-261.976
	129	1.25000	1434.254	882.711	-237.421	1429.768	859.847	-164.665	1430.833	863.210	-315.053	1608.271	479.680	-140.284	1372.454	456.912	-278.207	1703.303	87.570	-146.513	1282.433	70.193	-234.986	1514.887	950.155	-237.278	1514.050	947.513	-119.142	1515.725	952.797	-355.415	1327.376	983.579	-199.015	1331.399	987.828	-283.929	1609.731	484.106	-81.970	1380.384	450.594	-335.314	1589.532	459.214	-188.540	1352.950	449.280	-230.850	1687.407	83.138	-110.075	1265.826	70.115	-270.274	1712.574	105.579	-172.827	1290.525	86.011	-209.844	1363.398	1420.018	-226.440	1480.727	1330.148	-173.819	1490.260	1336.112	-277.320	1469.311	1342.795	-223.649	1534.925	1172.209	-239.172	1605.314	585.906	-6.487	1532.789	514.880	-277.060	1594.281	650.717	-74.047	1476.761	580.348	-324.899	1626.200	569.334	-94.149	1441.508	500.528	-320.323	1665.040	216.592	-20.381	1321.458	187.754	-369.140	1670.755	183.215	-95.199	1296.130	163.821	-295.422	1823.986	77.107	-128.749	1399.628	39.090	-262.036
	130	1.25833	1441.366	882.401	-237.680	1436.538	858.970	-164.458	1436.955	862.196	-314.852	1613.371	478.460	-140.424	1376.220	456.478	-277.842	1717.865	88.407	-147.423	1282.639	70.457	-234.887	1521.278	949.273	-237.519	1520.951	946.738	-119.292	1521.606	951.809	-355.747	1333.993	982.540	-198.502	1337.547	986.815	-283.519	1614.704	482.763	-82.098	1383.909	450.115	-334.977	1593.186	457.343	-188.164	1357.122	449.666	-229.277	1702.204	83.557	-110.938	1265.863	70.606	-270.095	1726.329	106.921	-173.776	1291.096	86.361	-209.689	1370.662	1419.199	-226.401	1487.815	1329.368	-174.085	1497.534	1335.404	-277.253	1476.187	1341.800	-223.693	1542.116	1171.471	-239.312	1610.427	584.287	-6.789	1537.070	513.714	-277.279	1599.563	649.192	-74.257	1481.127	579.522	-324.878	1630.845	567.421	-94.163	1445.280	499.844	-319.677	1676.914	216.456	-21.049	1322.161	187.872	-369.057	1682.976	183.408	-95.570	1296.957	164.730	-295.136	1838.942	79.984	-131.468	1399.714	39.114	-262.137
	131	1.26667	1448.817	882.300	-237.681	1443.399	858.066	-164.227	1443.167	861.160	-314.624	1618.551	477.298	-140.589	1380.081	456.014	-277.458	1731.367	89.182	-148.337	1282.850	70.758	-234.772	1527.764	948.362	-237.730	1527.947	945.928	-119.390	1527.581	950.796	-356.070	1340.719	981.512	-197.931	1343.787	985.754	-283.041	1619.760	481.476	-82.251	1387.472	449.619	-334.629	1595.736	454.968	-187.061	1361.023	450.795	-227.181	1715.860	83.946	-111.839	1265.897	71.145	-269.893	1738.981	107.904	-175.021	1291.663	86.660	-209.645	1377.844	1418.393	-225.884	1494.846	1328.641	-174.341	1504.512	1334.649	-277.269	1483.087	1340.756	-223.703	1548.994	1170.691	-239.453	1615.640	582.677	-7.110	1541.435	512.514	-277.628	1604.829	647.601	-74.513	1485.875	578.740	-324.882	1635.126	565.168	-94.020	1448.674	498.960	-318.818	1687.842	216.291	-21.739	1322.867	188.063	-368.969	1694.659	183.646	-95.823	1298.322	165.086	-295.013	1852.641	82.680	-134.113	1399.807	39.153	-262.273
	132	1.27500	1456.045	881.881	-237.447	1450.350	857.161	-163.975	1449.472	860.122	-314.372	1623.841	476.168	-140.780	1384.050	455.528	-277.066	1743.710	89.790	-149.315	1283.088	71.104	-234.657	1534.343	947.443	-237.918	1535.035	945.111	-119.453	1533.652	949.776	-356.383	1347.546	980.517	-197.305	1350.137	984.663	-282.497	1624.962	480.231	-82.432	1391.085	449.115	-334.279	1598.176	452.970	-186.627	1366.239	449.785	-225.730	1728.297	84.202	-112.829	1265.947	71.742	-269.683	1750.346	108.709	-176.180	1292.138	86.824	-209.492	1384.876	1417.635	-225.699	1501.703	1327.042	-174.413	1511.057	1333.495	-277.204	1490.007	1339.726	-223.717	1554.970	1169.176	-240.385	1621.048	581.126	-7.456	1545.881	511.276	-278.120	1609.750	645.830	-74.873	1489.896	577.707	-324.805	1639.227	563.310	-94.359	1452.872	498.081	-318.348	1697.852	216.027	-22.486	1323.579	188.321	-368.887	1705.220	183.321	-96.356	1299.333	164.708	-295.056	1865.052	85.019	-136.618	1399.907	39.208	-262.430
	133	1.28333	1462.950	881.030	-237.175	1457.397	856.278	-163.699	1455.880	859.101	-314.094	1629.264	475.050	-141.005	1388.143	455.035	-276.676	1754.802	90.134	-150.407	1283.378	71.513	-234.559	1541.023	946.542	-238.080	1542.219	944.316	-119.490	1539.827	948.768	-356.670	1354.460	979.569	-196.622	1356.609	983.570	-281.901	1630.366	479.021	-82.650	1394.769	448.621	-333.938	1603.069	451.618	-186.961	1371.967	447.634	-224.271	1739.450	84.236	-113.945	1266.033	72.416	-269.479	1760.512	109.461	-177.253	1292.282	86.975	-209.256	1391.771	1416.903	-225.883	1508.498	1325.386	-174.288	1517.654	1332.145	-276.987	1496.945	1338.735	-223.739	1560.939	1167.516	-240.868	1626.742	579.678	-7.836	1550.407	509.995	-278.755	1615.572	644.203	-75.229	1492.661	576.135	-324.771	1644.550	561.977	-94.646	1457.150	497.674	-318.087	1706.981	215.609	-23.317	1324.300	188.649	-368.820	1714.751	182.813	-97.182	1299.959	164.870	-295.072	1876.151	86.837	-138.917	1400.014	39.279	-262.594
